<svg data-v-0dd9719b="" version="1.0" xmlns="http://www.w3.org/2000/svg" xmlns:xlink="http://www.w3.org/1999/xlink" width="100%" height="100%" viewBox="0 0 340.000000 250.000000" preserveAspectRatio="xMidYMid meet" color-interpolation-filters="sRGB" style="margin: auto;"> <rect data-v-0dd9719b="" x="0" y="0" width="100%" height="100%" fill="#ffffff" fill-opacity="1" class="background"></rect> <rect data-v-0dd9719b="" x="0" y="0" width="100%" height="100%" fill="url(#watermark)" fill-opacity="1" class="watermarklayer"></rect> <g data-v-0dd9719b="" class="iconmbgsvg" transform="translate(82.69999694824219,64.0679817199707)"><g fill="#000000" hollow-target="textNormalTran"><g opacity="0.55" transform="translate(31.050003051757812,0)"><g><rect fill="#000000" fill-opacity="0" stroke-width="2" x="0" y="0" width="112.5" height="121.86403223709867" class="image-rect"></rect> <svg x="0" y="0" width="112.5" height="121.86403223709867" filtersec="colorsb312398564" class="image-svg-svg primary" style="overflow: visible;"><svg xmlns="http://www.w3.org/2000/svg" viewBox="0.00018491921946406364 -0.0012735838536173105 46.48240280151367 50.35114669799805"><defs><linearGradient id="a4677d1df-9c10-4c96-806c-8fa4e2a4aed9" y1="25.18" x2="46.48" y2="25.18" gradientUnits="userSpaceOnUse"><stop offset="0" stop-color="#fd9248"></stop><stop offset=".49" stop-color="#fa1768"></stop><stop offset=".99" stop-color="#f001ff"></stop></linearGradient></defs><path d="M25.59 1.13a12 12 0 0 1 13.17 2c2.33 2.27 4.63 4.58 6.91 6.9a2.58 2.58 0 0 1 .06 3.68c-3.8 3.83-7.61 7.63-11.42 11.44C38 29.08 42 32.82 45.77 36.7a2.55 2.55 0 0 1-.15 3.68C43.33 42.69 41 45 38.7 47.28a12 12 0 0 1-15.36.56c-2.11-1.8-3.92-3.91-6-5.76-1.56 1.56-3.11 3.14-4.68 4.69a2.6 2.6 0 0 1-3.35.41A30.65 30.65 0 0 1 1.74 15 30.05 30.05 0 0 1 9.07 3.43a2.4 2.4 0 0 1 3.44 0C14.16 5 15.76 6.7 17.39 8.32c2.71-2.41 4.87-5.57 8.2-7.19zm.63 5.62c-1.78 1.68-3.49 3.45-5.2 5.19l9.66 9.66c3.23-3.21 6.44-6.45 9.68-9.66-1.7-1.77-3.36-3.54-5.21-5.21a6.81 6.81 0 0 0-8.93.02zM10.82 9a26.21 26.21 0 0 0-5.4 12 25.51 25.51 0 0 0 5.48 20.4l3-3a21.58 21.58 0 0 1 0-26.38C12.89 11 11.88 9.94 10.82 9zm6.68 6.67a16.47 16.47 0 0 0 .06 19.09c3.18-3.16 6.33-6.35 9.51-9.5q-4.71-4.9-9.57-9.62zM21 38.43c1.74 1.75 3.44 3.54 5.24 5.23a6.76 6.76 0 0 0 8.82 0c1.8-1.7 3.5-3.49 5.26-5.24l-9.67-9.67C27.47 32 24.24 35.21 21 38.43z" fill="url(#a4677d1df-9c10-4c96-806c-8fa4e2a4aed9)"></path></svg></svg> <!----></g></g> <g transform="translate(0,33.74576759338379)"><g data-gra="path-name" fill-rule="" class="tp-name" transform="translate(0,0)"><g transform="scale(1)"><g><path d="M25.05-37.66L19.69-37.66 19.69-26.02 3.65-26.02 3.65-22.46 19.51-22.46Q19.38-22.06 19.12-21.75L19.12-21.75 2.68 1.71 9.32 1.71 22.37-16.74 35.42 1.71 42.06 1.71 25.66-21.75Q25.4-22.06 25.22-22.46L25.22-22.46 41.26-22.46 41.26-26.02 25.05-26.02 25.05-37.66ZM55.06-37.66L49.48-37.66 52.87-28.7 58.45-28.7 55.06-37.66ZM60.56-2.2L57-4.31Q57.57-6.06 57.57-7.69L57.57-7.69 57.57-24.7Q57.57-25.62 56.91-26.28L56.91-26.28Q56.25-26.89 55.33-26.89L55.33-26.89 47.68-26.89 47.68-23.33 51.28-23.33Q52.16-23.33 52.16-22.46L52.16-22.46 52.16-8.13Q52.16-3.65 47.68 1.71L47.68 1.71 53.48 1.71Q54.4 0.7 55.37-0.92L55.37-0.92 58.67 1.05Q59.77 1.71 61 1.71L61 1.71 86.13 1.71 87.06-1.89 61.7-1.89Q61.08-1.89 60.56-2.2L60.56-2.2ZM76.6-13.23L76.6-18.15 86.13-18.15 86.13-21.71 76.6-21.71 76.6-26.89 71.19-26.89 71.19-21.71 67.68-21.71 71.1-28.96 86.04-28.96 86.04-32.56 72.77-32.56 75.19-37.66 69.7-37.66 67.1-32.56 60.78-32.56 60.78-28.96 65.3-28.96 61.66-21.71 61.66-18.15 71.19-18.15 71.19-13.23 59.77-13.23 59.77-9.67 71.19-9.67 71.19-3.82 76.6-3.82 76.6-9.67 87.06-9.67 87.06-13.23 76.6-13.23ZM110.57-35.99L110.57-21.84 106-21.84 106-35.99 110.57-35.99ZM116.63-37.35L116.63-21.84 111.84-21.84 111.84-37.35 116.63-37.35ZM122.43-2.46L122.43-8.04 118.83-8.04 119.53-8.88Q120.01-9.45 120.01-10.24L120.01-10.24 120.01-15.95 115-15.95 115-11.25Q115-10.9 114.79-10.68L114.79-10.68 103.97 1.71 110.26 1.71 117.64-6.68 117.64 0.62Q117.64 1.71 118.7 1.71L118.7 1.71 131.22 1.71 132.06-1.63 123.27-1.63Q122.43-1.63 122.43-2.46L122.43-2.46ZM126.78-20.3L108.46-20.3Q107.58-20.3 106.96-19.69L106.96-19.69Q106.35-19.07 106.35-18.19L106.35-18.19 106.35-6.81 111.18-6.81 111.18-16.13Q111.18-16.96 112.02-16.96L112.02-16.96 123.22-16.96Q124.06-16.96 124.06-16.13L124.06-16.13 124.06-6.81 128.89-6.81 128.89-18.19Q128.89-19.07 128.28-19.69L128.28-19.69Q127.66-20.3 126.78-20.3L126.78-20.3ZM131.26-32.96L131.26-29.62 124.01-29.62 123.71-28.04 126.69-28.04 130.87-21.84 126.25-21.84 123.35-26.15 122.56-21.84 117.51-21.84 120.5-37.66 125.51-37.66 124.63-32.96 131.26-32.96ZM101.78-37.66L96.72-37.66 96.72-30.41 92.68-30.41 92.68-27.07 96.72-27.07 96.72-17.09 92.68-15.42 92.68-11.25 96.72-12.88 96.72-2.46Q96.72-1.63 95.89-1.63L95.89-1.63 92.68-1.63 93.52 1.71 99.67 1.71Q100.55 1.71 101.16 1.1L101.16 1.1Q101.78 0.48 101.78-0.4L101.78-0.4 101.78-14.94 104.85-16.22 104.85-20.39 101.78-19.16 101.78-27.07 104.85-27.07 104.85-30.41 101.78-30.41 101.78-37.66ZM143.61-16.88L143.61-30.5 138.69-30.5 138.69-16.22Q138.69-14.41 139.61-12.88L139.61-12.88 144.32-7.12 137.68 1.76 143.35 1.76 147.39-3.34 151.57 1.76 157.24 1.76 150.42-7.12 155-12.88Q155.92-14.41 155.92-16.22L155.92-16.22 155.92-33.62Q155.92-34.58 155.26-35.2L155.26-35.2Q154.6-35.86 153.68-35.86L153.68-35.86 138.69-35.86 138.69-32.3 150.07-32.3Q150.95-32.3 150.95-31.38L150.95-31.38 150.95-16.88Q150.95-16.17 150.6-15.56L150.6-15.56 147.35-11.16 144.01-15.56Q143.61-16.17 143.61-16.88L143.61-16.88ZM173.72-35.86L158.73-35.86 158.73-32.3 170.11-32.3Q171.04-32.3 171.04-31.38L171.04-31.38 171.04-16.88Q171.04-16.17 170.64-15.56L170.64-15.56 167.39-11.16 164.05-15.56Q163.7-16.17 163.7-16.88L163.7-16.88 163.7-30.5 158.73-30.5 158.73-16.22Q158.73-14.41 159.65-12.88L159.65-12.88 164.36-7.12 157.76 1.76 163.39 1.76 167.48-3.34 171.61 1.76 177.28 1.76 170.46-7.12 175.03-12.88Q175.96-14.41 175.96-16.22L175.96-16.22 175.96-33.62Q175.96-34.58 175.3-35.2L175.3-35.2Q174.64-35.86 173.72-35.86L173.72-35.86Z" transform="translate(-2.680000066757202, 37.65999984741211)"></path></g> <!----> <!----> <!----> <!----> <!----> <!----> <!----></g></g> <g data-gra="path-slogan" fill-rule="" class="tp-slogan" fill="#000000" transform="translate(27.770004272460938,45.42000198364258)"><!----> <!----> <g transform="scale(1, 1)"><g transform="scale(1)"><path d="M4.41 0L0.94 0L0.94-8.58L4.45-8.58Q7.92-8.39 8.06-4.41L8.06-4.41Q7.88-0.09 4.41 0L4.41 0ZM4.27-7.64L2.11-7.64L2.11-0.98L4.36-0.98Q6.80-1.13 6.89-4.31L6.89-4.31Q6.84-7.55 4.27-7.64L4.27-7.64ZM15.19 0L14.34-2.48L10.88-2.48L9.98 0L8.81 0L12.05-8.58L13.36-8.58L16.45 0L15.19 0ZM12.61-7.31L11.25-3.52L13.92-3.52L12.66-7.31L12.61-7.31ZM17.48-8.58L18.66-8.58L18.66-1.03L23.02-1.03L23.02 0L17.48 0L17.48-8.58ZM24.33-8.58L25.50-8.58L25.50 0L24.33 0L24.33-8.58ZM33.14 0L32.30-2.48L28.83-2.48L27.94 0L26.77 0L30-8.58L31.31-8.58L34.41 0L33.14 0ZM30.56-7.31L29.20-3.52L31.88-3.52L30.61-7.31L30.56-7.31ZM36.84-8.58L41.16-1.64L41.16-8.58L42.28-8.58L42.28 0L40.97 0L36.61-6.94L36.56-6.94L36.56 0L35.44 0L35.44-8.58L36.84-8.58ZM47.39-8.58L48.56-8.58L48.56-1.03L52.92-1.03L52.92 0L47.39 0L47.39-8.58ZM59.72 0L58.88-2.48L55.41-2.48L54.52 0L53.34 0L56.58-8.58L57.89-8.58L60.98 0L59.72 0ZM57.14-7.31L55.78-3.52L58.45-3.52L57.19-7.31L57.14-7.31ZM63.42-8.58L67.73-1.64L67.73-8.58L68.86-8.58L68.86 0L67.55 0L63.19-6.94L63.14-6.94L63.14 0L62.02 0L62.02-8.58L63.42-8.58ZM76.92-6.09L76.92-6.09L75.84-6.09Q75.75-7.73 73.69-7.83L73.69-7.83Q71.77-7.78 71.77-6.33L71.77-6.33Q71.77-5.39 72.80-5.25L72.80-5.25L75.23-4.69Q77.16-4.22 77.16-2.34L77.16-2.34Q77.11 0.05 73.78 0.14L73.78 0.14Q71.95 0.14 71.20-0.61L71.20-0.61Q70.27-1.31 70.31-2.77L70.31-2.77L71.44-2.77Q71.48-0.80 73.78-0.75L73.78-0.75Q76.03-0.80 76.08-2.20L76.08-2.20Q76.27-3.38 74.20-3.75L74.20-3.75L72.42-4.13Q70.59-4.64 70.59-6.19L70.59-6.19Q70.73-8.72 73.59-8.81L73.59-8.81Q76.83-8.81 76.92-6.09ZM79.78-5.06L84.28-5.06L84.28-8.58L85.45-8.58L85.45 0L84.28 0L84.28-3.98L79.78-3.98L79.78 0L78.61 0L78.61-8.58L79.78-8.58L79.78-5.06ZM92.91-3.19L92.91-8.58L94.08-8.58L94.08-3.05Q93.94 0.05 90.56 0.14L90.56 0.14Q87.42 0.05 87.28-2.86L87.28-2.86L87.28-8.58L88.45-8.58L88.45-3.19Q88.50-0.84 90.61-0.80L90.61-0.80Q92.91-0.84 92.91-3.19L92.91-3.19ZM101.53 0L100.69-2.48L97.22-2.48L96.33 0L95.16 0L98.39-8.58L99.70-8.58L102.80 0L101.53 0ZM98.95-7.31L97.59-3.52L100.27-3.52L99-7.31L98.95-7.31ZM105.23-8.58L109.55-1.64L109.55-8.58L110.67-8.58L110.67 0L109.36 0L105-6.94L104.95-6.94L104.95 0L103.83 0L103.83-8.58L105.23-8.58ZM118.88-3.61L116.25-3.61L116.25-4.59L120-4.59L120 0L119.25 0L118.97-1.08Q117.98 0.09 116.16 0.14L116.16 0.14Q114.42 0.14 113.48-0.75L113.48-0.75Q112.08-2.06 112.13-4.36L112.13-4.36Q112.45-8.63 116.20-8.81L116.20-8.81Q119.39-8.63 119.86-6L119.86-6L118.73-6Q118.27-7.78 116.16-7.83L116.16-7.83Q113.48-7.64 113.34-4.31L113.34-4.31Q113.34-0.75 116.20-0.75L116.20-0.75Q117.23-0.75 117.98-1.31L117.98-1.31Q118.92-2.06 118.88-3.61L118.88-3.61Z" transform="translate(-0.9375, 8.8125)"></path></g></g></g></g></g></g><defs v-gra="od"></defs></svg>